<svg width="35" height="31" viewBox="0 0 35 31" fill="none" xmlns="http://www.w3.org/2000/svg">
<path d="M1.1667 0C0.857274 0 0.560519 0.108869 0.341719 0.302656C0.12292 0.496444 0 0.759276 0 1.03333C0 1.30739 0.12292 1.57022 0.341719 1.76401C0.560519 1.9578 0.857274 2.06667 1.1667 2.06667H3.75678L4.69248 5.3878L8.18792 21.8901C8.23797 22.1269 8.37986 22.3408 8.58906 22.4948C8.79826 22.6487 9.06162 22.7331 9.33362 22.7333H11.667C10.4293 22.7333 9.24229 23.1688 8.36709 23.944C7.4919 24.7191 7.00022 25.7704 7.00022 26.8667C7.00022 27.9629 7.4919 29.0142 8.36709 29.7894C9.24229 30.5645 10.4293 31 11.667 31C12.9047 31 14.0918 30.5645 14.967 29.7894C15.8422 29.0142 16.3338 27.9629 16.3338 26.8667C16.3338 25.7704 15.8422 24.7191 14.967 23.944C14.0918 23.1688 12.9047 22.7333 11.667 22.7333H28.0009C26.7632 22.7333 25.5761 23.1688 24.7009 23.944C23.8257 24.7191 23.3341 25.7704 23.3341 26.8667C23.3341 27.9629 23.8257 29.0142 24.7009 29.7894C25.5761 30.5645 26.7632 31 28.0009 31C29.2386 31 30.4256 30.5645 31.3008 29.7894C32.176 29.0142 32.6677 27.9629 32.6677 26.8667C32.6677 25.7704 32.176 24.7191 31.3008 23.944C30.4256 23.1688 29.2386 22.7333 28.0009 22.7333H30.3343C30.6063 22.7331 30.8696 22.6487 31.0788 22.4948C31.288 22.3408 31.4299 22.1269 31.48 21.8901L34.9801 5.3568C35.0116 5.20766 35.0057 5.05421 34.9627 4.90734C34.9197 4.76046 34.8407 4.62378 34.7313 4.50699C34.622 4.39021 34.4849 4.29618 34.3299 4.23161C34.1749 4.16703 34.0057 4.13347 33.8344 4.13333H6.74354L5.79851 0.783267C5.73553 0.55962 5.58993 0.361044 5.38487 0.219118C5.17981 0.0771914 4.92706 6.3677e-05 4.66681 0H1.1667ZM14.0004 26.8667C14.0004 27.4148 13.7546 27.9404 13.317 28.328C12.8794 28.7156 12.2859 28.9333 11.667 28.9333C11.0482 28.9333 10.4547 28.7156 10.0171 28.328C9.57946 27.9404 9.33362 27.4148 9.33362 26.8667C9.33362 26.3186 9.57946 25.7929 10.0171 25.4053C10.4547 25.0177 11.0482 24.8 11.667 24.8C12.2859 24.8 12.8794 25.0177 13.317 25.4053C13.7546 25.7929 14.0004 26.3186 14.0004 26.8667ZM30.3343 26.8667C30.3343 27.4148 30.0884 27.9404 29.6508 28.328C29.2132 28.7156 28.6197 28.9333 28.0009 28.9333C27.382 28.9333 26.7885 28.7156 26.3509 28.328C25.9133 27.9404 25.6675 27.4148 25.6675 26.8667C25.6675 26.3186 25.9133 25.7929 26.3509 25.4053C26.7885 25.0177 27.382 24.8 28.0009 24.8C28.6197 24.8 29.2132 25.0177 29.6508 25.4053C30.0884 25.7929 30.3343 26.3186 30.3343 26.8667ZM17.1599 9.60173L19.8339 11.9722L22.508 9.60173C22.7271 9.4077 23.0242 9.29869 23.3341 9.29869C23.6439 9.29869 23.941 9.4077 24.1601 9.60173C24.3792 9.79577 24.5022 10.0589 24.5022 10.3333C24.5022 10.6077 24.3792 10.8709 24.1601 11.0649L21.4837 13.4333L24.1601 15.8017C24.3792 15.9958 24.5022 16.2589 24.5022 16.5333C24.5022 16.8077 24.3792 17.0709 24.1601 17.2649C23.941 17.459 23.6439 17.568 23.3341 17.568C23.0242 17.568 22.7271 17.459 22.508 17.2649L19.8339 14.8945L17.1599 17.2649C17.0514 17.361 16.9226 17.4372 16.7809 17.4892C16.6392 17.5412 16.4872 17.568 16.3338 17.568C16.1804 17.568 16.0285 17.5412 15.8868 17.4892C15.7451 17.4372 15.6163 17.361 15.5078 17.2649C15.3993 17.1689 15.3133 17.0548 15.2546 16.9293C15.1959 16.8037 15.1657 16.6692 15.1657 16.5333C15.1657 16.3975 15.1959 16.2629 15.2546 16.1374C15.3133 16.0119 15.3993 15.8978 15.5078 15.8017L18.1842 13.4333L15.5078 11.0649C15.3993 10.9689 15.3133 10.8548 15.2546 10.7293C15.1959 10.6037 15.1657 10.4692 15.1657 10.3333C15.1657 10.1975 15.1959 10.0629 15.2546 9.93739C15.3133 9.81187 15.3993 9.69781 15.5078 9.60173C15.6163 9.50566 15.7451 9.42945 15.8868 9.37745C16.0285 9.32546 16.1804 9.29869 16.3338 9.29869C16.4872 9.29869 16.6392 9.32546 16.7809 9.37745C16.9226 9.42945 17.0514 9.50566 17.1599 9.60173Z" fill="#FF0000"/>
</svg>
