<svg width="28" height="24" viewBox="0 0 28 24" fill="none" xmlns="http://www.w3.org/2000/svg">
<g id="shopping-cart-icon">
<path id="Shape" fill-rule="evenodd" clip-rule="evenodd" d="M0.91336 0.694687C0.408911 0.694687 0 1.06617 0 1.52441C0 1.98265 0.408911 2.35413 0.91336 2.35413H4.4336L7.57328 15.8111C7.6975 16.3177 8.06296 16.7393 8.5247 16.7359H23.7474C24.2299 16.742 24.6737 16.3446 24.6737 15.9062C24.6737 15.4678 24.2299 15.0703 23.7474 15.0765H9.2668L8.87671 13.417H24.9652C25.3741 13.4143 25.7605 13.1313 25.85 12.7688L27.9812 4.47164C28.0999 3.99011 27.6396 3.46396 27.0964 3.46042H6.56478L6.07004 1.35155C5.98361 0.983125 5.59037 0.6943 5.17571 0.694687H0.91336ZM6.94531 5.11969H25.9452L24.2421 11.7574H8.49611L6.94531 5.11969ZM11.8737 17.842C10.203 17.842 8.8291 19.0901 8.8291 20.6077C8.8291 22.1254 10.203 23.3735 11.8737 23.3735C13.5443 23.3735 14.9182 22.1254 14.9182 20.6077C14.9182 19.0901 13.5443 17.842 11.8737 17.842ZM20.3984 17.842C18.7278 17.842 17.3539 19.0901 17.3539 20.6077C17.3539 22.1254 18.7278 23.3735 20.3984 23.3735C22.069 23.3735 23.4429 22.1254 23.4429 20.6077C23.4429 19.0901 22.069 17.842 20.3984 17.842ZM11.8737 19.5015C12.5571 19.5015 13.0916 19.9887 13.0916 20.6118C13.0916 21.2348 12.5571 21.722 11.8737 21.722C11.1904 21.722 10.6559 21.2348 10.6559 20.6118C10.6559 19.9887 11.1904 19.5015 11.8737 19.5015ZM20.3984 19.5015C21.0818 19.5015 21.6162 19.9887 21.6162 20.6118C21.6162 21.2348 21.0818 21.722 20.3984 21.722C19.715 21.722 19.1805 21.2348 19.1805 20.6118C19.1805 19.9887 19.715 19.5015 20.3984 19.5015Z" fill="#075953"/>
</g>
</svg>
